<?xml version="1.0" encoding="UTF-8"?>
<svg width="22px" height="22px" viewBox="0 0 22 22" version="1.1" xmlns="http://www.w3.org/2000/svg" xmlns:xlink="http://www.w3.org/1999/xlink">
    <title>angel</title>
    <g id="x" stroke="none" stroke-width="1" fill="none" fill-rule="evenodd">
        <g id="游行列表" transform="translate(-30.000000, -596.000000)">
            <g id="angel" transform="translate(30.000000, 596.000000)">
                <circle id="椭圆形" stroke="#021508" stroke-width="1.5" cx="11" cy="11" r="10.25"></circle>
                <path d="M17.9722526,9.74283332 C17.9185825,9.48629998 17.59918,9.33246665 17.3635551,9.42909998 C16.9411758,9.42043332 15.5762973,8.63869999 14.8292794,8.21143332 L14.3859556,7.95793332 C13.931287,7.70053332 13.3518245,7.73433332 12.8264684,7.83746666 C12.9468989,7.56143332 13.0140956,7.26373333 13.0140956,6.96949999 C13.0140956,5.88356666 12.118285,5 11.0178298,5 C9.91737468,5 9.02156404,5.884 9.02156404,6.96949999 C9.02156404,7.26373333 9.08876075,7.56143332 9.20919121,7.83746666 C8.68470783,7.73476666 8.10437264,7.70053332 7.64970401,7.95793332 L7.20638029,8.21099999 C6.42969109,8.65603332 4.98888899,9.48976665 4.64505129,9.43256665 C4.43397576,9.34271121 4.1888747,9.4303467 4.08391516,9.63319998 C3.92814098,9.93696665 3.99228329,10.3027 4.25103424,10.5878333 C4.43822507,10.7941 4.68388575,10.9011333 4.84664141,10.9722 C5.20662377,11.1286333 5.62856672,11.2972 6.08978048,11.3201666 C6.15435913,11.3232 6.21937412,11.3236333 6.28177107,11.3206 C6.0548731,11.5541666 5.75379695,11.7110333 5.43134002,11.7634666 C5.39464897,11.7695073 5.35887545,11.7801363 5.32487252,11.7951 C5.2050459,11.8330848 5.10755379,11.9205752 5.05740081,12.0351316 C5.00724782,12.149688 5.00931318,12.2801657 5.06306717,12.3931 C5.70230856,13.7329666 7.24041498,13.5834666 8.37926825,13.3061333 L7.78147937,15.3038 C7.73947329,15.4438779 7.77140114,15.595547 7.86639515,15.7071815 C7.96138916,15.8188159 8.10664849,15.8753724 8.252729,15.8576 L9.51288541,15.7063666 L9.56830088,17.5792333 C9.57514859,17.8136352 9.76851436,18 10.0046431,18 L12.0310165,18 C12.2669808,18 12.4602799,17.8138983 12.4673588,17.5796666 L12.5227742,15.7063666 L13.783367,15.8576 C13.929346,15.8753143 14.0744898,15.8188091 14.1694575,15.7072928 C14.2644253,15.5957766 14.2964393,15.4442537 14.2546166,15.3042333 L13.6563914,13.3061333 C14.7952447,13.5834666 16.3337874,13.7329666 16.9725925,12.3935333 C17.0298384,12.2734792 17.0284763,12.1339823 16.9688968,12.0150532 C16.9093172,11.8961242 16.7981031,11.8109032 16.6671529,11.7838333 L16.5685396,11.7634666 C16.2445977,11.7101682 15.9464704,11.5549168 15.7181085,11.3206 C15.7813781,11.3236333 15.8450841,11.3232 15.9100991,11.3206 C16.3721856,11.2972 16.7936922,11.1286333 17.1536745,10.9722 C17.3159938,10.9011333 17.5616545,10.7941 17.748409,10.5882666 C17.9578533,10.3581666 18.0398856,10.0756333 17.9818521,9.81606665 C17.9805332,9.79144854 17.977324,9.76696631 17.9722526,9.74283332 L17.9722526,9.74283332 Z" id="形状" stroke="#FFABDB" stroke-width="1.2" stroke-linejoin="round" fill-rule="nonzero"></path>
            </g>
        </g>
    </g>
</svg>