<?xml version="1.0" encoding="UTF-8"?>
<svg width="22px" height="22px" viewBox="0 0 22 22" version="1.1" xmlns="http://www.w3.org/2000/svg" xmlns:xlink="http://www.w3.org/1999/xlink">
    <title>games</title>
    <g id="x" stroke="none" stroke-width="1" fill="none" fill-rule="evenodd">
        <g id="games">
            <path d="M3.08235788,16.9999962 L0.288820048,19.7929956 C-0.0902250527,20.1853744 -0.0848041329,20.8090801 0.30100391,21.1948138 C0.686811953,21.5805475 1.31063788,21.5859673 1.70309234,21.2069953 L4.49663017,18.4139959 L7.290168,21.2069953 C7.68262251,21.585967 8.30644817,21.580547 8.69225608,21.1948134 C9.07806399,20.8090799 9.08348505,20.1853745 8.70444026,19.7929956 L5.91090244,16.9999962 L8.70444026,14.2069968 C9.08348505,13.814618 9.07806399,13.1909126 8.69225608,12.805179 C8.30644817,12.4194454 7.68262251,12.4140254 7.290168,12.7929971 L4.49663017,15.5859965 L1.70309234,12.7929971 C1.31063788,12.4140251 0.686811953,12.419445 0.30100391,12.8051787 C-0.0848041329,13.1909123 -0.0902250527,13.814618 0.288820048,14.2069968 L3.08235788,16.9999962 Z M16.9990372,10 C14.2370054,10 11.9980744,7.76149827 11.9980744,5 C11.9980744,2.2384995 14.2370054,0 16.9990372,0 C19.761069,0 22,2.2384995 22,5 C22,7.76149827 19.761069,10 16.9990372,10 Z M16.9990372,7.99999955 C18.6562105,7.99999955 19.9996149,6.65685276 19.9996149,4.99999955 C19.9996149,3.343145 18.6562105,1.99999955 16.9990372,1.99999955 C15.3418639,1.99999955 13.9984595,3.343145 13.9984595,4.99999955 C13.9984595,6.65685276 15.3418639,7.99999955 16.9990372,7.99999955 Z" id="shape" fill="#000000" fill-rule="nonzero"></path>
            <path d="M19.4945176,11.9999973 C20.8797843,11.9999973 22,13.1174971 22,14.5049968 L22,19.4949957 C22,20.8799953 20.8822848,21.9999973 19.4945176,21.9999973 L14.5035568,21.9999973 C13.8387766,22.0009257 13.2009564,21.7373057 12.7308854,21.2673253 C12.2608144,20.7973449 11.9971436,20.1596477 11.9980719,19.4949957 L11.9980719,14.5049968 C11.9980719,13.1199971 13.1157896,11.9999973 14.5035568,11.9999973 L19.4945176,11.9999973 Z M19.4945176,13.9999969 L14.5035568,13.9999969 C14.2215025,13.9999969 13.9984595,14.2234968 13.9984595,14.5049968 L13.9984595,19.4949957 C13.9984595,19.7769956 14.2220025,19.9999969 14.5035568,19.9999969 L19.4945176,19.9999969 C19.7765719,19.9999969 19.9996149,19.7764956 19.9996149,19.4949957 L19.9996149,14.5049968 C19.9996149,14.2229968 19.7760718,13.9999969 19.4945176,13.9999969 Z" id="shaoe-merge-1" fill="#00B600"></path>
            <path d="M6.69055255,1.57549964 L9.64912215,6.58299852 C10.4867834,8.00149822 9.73163803,9.49949789 8.08282059,9.49949789 L1.91263267,9.49949789 C0.257313983,9.49949789 -0.493330551,8.00499823 0.346331113,6.58299852 L3.30490071,1.57599963 L3.30490071,1.57549964 C4.15156371,0.141999953 5.84238924,0.139999961 6.69055255,1.57549964 Z M4.99772664,2.64299941 L2.12867426,7.49999834 L7.86727909,7.49999834 L4.99772664,2.64299941 Z" id="shape-merge-2" fill="#FE50B6"></path>
        </g>
    </g>
</svg>